<svg xmlns="http://www.w3.org/2000/svg" xmlns:xlink="http://www.w3.org/1999/xlink" class="hide-on-mobile" width="190" height="63" viewBox="0 0 190 64">
    <defs>
        <polygon id="a" points="0 .94 0 20.111 134.138 20.111 134.138 .94 0 .94"/>
        <polygon id="c" points="52.073 .485 .236 .485 .236 59.618 52.073 59.618 52.073 .485"/>
        <polygon id="e" points=".805 7.308 5.708 7.308 5.708 .657 .805 .657"/>
        <polygon id="g" points=".349 7.308 5.253 7.308 5.253 .657 .349 .657 .349 7.308"/>
        <polygon id="i" points=".527 7.308 4.609 7.308 4.609 .657 .527 .657 .527 7.308"/>
        <polygon id="k" points="1.021 7.308 6.194 7.308 6.194 .657 1.021 .657 1.021 7.308"/>
    </defs>
    <g fill="none" fill-rule="evenodd" transform="translate(0 -1)">
        <g transform="translate(0 32.921)">
            <mask id="b" fill="white">
                <use xlink:href="#a"/>
            </mask>
            <path fill="#FEFEFE" d="M125.327758,5.04136813 L123.697099,2.78955495 C123.268033,2.21642308 122.754407,1.76543407 122.152044,1.4438956 C121.517319,1.1066978 120.839791,0.939664835 120.138253,0.939664835 L113.630231,0.939664835 L113.630231,10.9313681 L110.294791,2.14334615 L109.835451,0.939664835 L104.339022,0.939664835 C103.410945,0.939664835 102.518363,1.23928022 101.769846,1.80197253 C101.041165,2.33856593 100.482648,3.08708242 100.151714,3.96191758 L97.5031978,10.9345 L97.5031978,0.939664835 L89.3238022,0.939664835 C88.3758901,0.939664835 87.4666044,1.25285165 86.7222637,1.8312033 C85.9862747,2.38032418 85.4235824,3.1538956 85.0968242,4.07362088 L85.0592418,4.17801648 L85.0258352,4.08823626 C84.7126484,3.18521429 84.1562198,2.40642308 83.4275385,1.84895055 C82.6581429,1.25285165 81.7467692,0.939664835 80.7946813,0.939664835 L54.9400659,0.939664835 L54.9400659,3.71763187 C53.3511648,1.92724725 50.7318791,0.939664835 47.5425934,0.939664835 L18.7722088,0.939664835 L18.7722088,3.71763187 C17.1864396,1.92724725 14.5681978,0.939664835 11.3789121,0.939664835 L-0.000208791209,0.939664835 L-0.000208791209,15.2387308 C-0.000208791209,16.5029615 0.442428571,17.7003791 1.24418681,18.6034011 C2.09083516,19.5638407 3.28512088,20.1108736 4.51594505,20.1108736 L11.3789121,20.1108736 C13.4730879,20.1108736 16.5068242,19.840489 18.6646813,17.4968077 C18.8118791,17.3370824 18.9455055,17.1690055 19.0791319,17.0009286 C19.288967,17.5897198 19.6021538,18.1346648 20.0145165,18.6013132 C20.8590769,19.5638407 22.0512747,20.1108736 23.2894066,20.1108736 L47.5425934,20.1108736 C49.6378132,20.1108736 52.6736374,19.840489 54.8346264,17.4936758 C54.9786923,17.3349945 55.1102308,17.1658736 55.2438571,16.9988407 C55.4536923,17.5897198 55.7658352,18.1346648 56.1802857,18.6013132 C57.0248462,19.5638407 58.2191319,20.1108736 59.4583077,20.1108736 L103.194846,20.1108736 L103.629132,18.8539505 L104.15111,17.3642253 L106.983363,17.3642253 L107.506385,18.8591703 L107.941714,20.1108736 L122.444352,20.1108736 L122.444352,15.7147747 L124.361055,18.2985659 C124.781769,18.8539505 125.295396,19.2986758 125.902978,19.6233462 C126.52622,19.9448846 127.193308,20.1108736 127.884407,20.1108736 L134.137703,20.1108736 L134.137703,0.939664835 L125.327758,0.939664835 L125.327758,5.04136813 Z" mask="url(#b)"/>
        </g>
        <path fill="#004990" d="M104.149962,44.6169066 L105.484137,40.7918516 L105.646995,40.7918516 L106.98639,44.6169066 L104.149962,44.6169066 Z M104.341005,35.7286648 C103.834687,35.7286648 103.329412,35.8883901 102.880511,36.224544 C102.43161,36.5606978 102.097544,37.0242143 101.898148,37.5461923 L96.7232582,51.1656429 L101.865786,51.1656429 L102.821005,48.4189945 L108.308038,48.4189945 L109.270566,51.1656429 L114.409962,51.1656429 L108.545016,35.7286648 L104.341005,35.7286648 Z M127.195291,35.7286648 L127.195291,43.5844341 L127.100291,43.5844341 L122.195786,36.8248187 C121.9515,36.4959725 121.642489,36.2141044 121.279192,36.0167967 C120.909632,35.819489 120.525456,35.7286648 120.138148,35.7286648 L115.498808,35.7286648 L115.498808,51.1656429 L120.578698,51.1656429 L120.578698,43.1198736 L120.67683,43.1198736 L125.85172,50.0935 C126.096005,50.4181703 126.399797,50.6906429 126.763093,50.8848187 C127.127434,51.0758626 127.510566,51.1656429 127.885346,51.1656429 L132.271005,51.1656429 L132.271005,35.7286648 L127.195291,35.7286648 Z M87.8391923,36.2485549 C87.3767198,36.5951484 87.0499615,37.0764121 86.8578736,37.6182253 L85.1040275,42.5770165 L85.0058956,42.5770165 L83.2572692,37.6213571 C83.0714451,37.079544 82.7436429,36.5972363 82.2853462,36.2485549 C81.8301813,35.8977857 81.3082033,35.7286648 80.7956209,35.7286648 L74.4859505,35.7286648 L74.4859505,51.1656429 L79.5616648,51.1656429 L79.5616648,40.9547088 L79.6639725,40.9547088 L83.1779286,51.1656429 L86.9518297,51.1656429 L90.4616099,40.9547088 L90.5618297,40.9547088 L90.5618297,51.1656429 L95.637544,51.1656429 L95.637544,35.7286648 L89.3236978,35.7286648 C88.8100714,35.7286648 88.2943571,35.8977857 87.8391923,36.2485549 L87.8391923,36.2485549 Z M25.7791374,45.4322363 L33.8489176,45.4322363 L33.8489176,41.5779505 L25.7791374,41.5779505 L25.7791374,39.5850385 L36.3878187,39.5850385 L36.3878187,35.7286648 L20.6407857,35.7286648 L20.6407857,48.1600934 C20.6407857,48.9336648 20.8975989,49.6988846 21.4164451,50.2897637 C21.9311154,50.8722912 22.6128187,51.1656429 23.2903462,51.1656429 L36.4222692,51.1656429 L36.4222692,47.3124011 L25.7791374,47.3124011 L25.7791374,45.4322363 Z M13.3550165,46.3905879 C12.7067198,47.1307527 11.7233132,47.1411923 10.4402912,47.1411923 L7.31364286,47.1411923 L7.31364286,39.7541593 L10.4402912,39.7541593 C11.7066099,39.7541593 12.8894121,39.8251484 13.5429286,40.5882802 C14.1014451,41.2386648 14.1724341,42.3556978 14.1724341,43.4466319 C14.1724341,44.5741044 13.9218846,45.7433352 13.3550165,46.3905879 L13.3550165,46.3905879 Z M11.3777637,35.7286648 L1.86523626,35.7286648 L1.86523626,48.1600934 C1.86523626,48.9336648 2.12309341,49.6988846 2.64402747,50.2897637 C3.16182967,50.8722912 3.84144505,51.1656429 4.51792857,51.1656429 L11.3777637,51.1656429 C13.9458956,51.1656429 15.9221044,50.640533 17.2928187,49.1518516 C18.5612253,47.7727857 19.3869945,45.7809176 19.3869945,43.4466319 C19.3869945,41.2167418 18.5935879,39.2948187 17.4201813,37.9251484 C16.1194121,36.4082802 13.8279286,35.7286648 11.3777637,35.7286648 L11.3777637,35.7286648 Z M61.9438626,45.4322363 L70.0146868,45.4322363 L70.0146868,41.5779505 L61.9438626,41.5779505 L61.9438626,39.5850385 L72.5483681,39.5850385 L72.5483681,35.7286648 L56.805511,35.7286648 L56.805511,48.1600934 C56.805511,48.9336648 57.0633681,49.6988846 57.5822143,50.2897637 C58.0989725,50.8722912 58.7796319,51.1656429 59.4582033,51.1656429 L72.5859505,51.1656429 L72.5859505,47.3124011 L61.9438626,47.3124011 L61.9438626,45.4322363 Z M49.394467,46.1536099 C48.7461703,46.8927308 47.8849066,47.1411923 46.6081484,47.1411923 L43.4773242,47.1411923 L43.4773242,39.7541593 L46.6081484,39.7541593 C47.875511,39.7541593 48.7461703,40.0214121 49.3996868,40.7814121 C49.9613352,41.4286648 50.3402912,42.3556978 50.3402912,43.4466319 C50.3402912,44.5741044 49.9613352,45.5084451 49.394467,46.1536099 L49.394467,46.1536099 Z M47.542489,35.7286648 L38.0289176,35.7286648 L38.0289176,48.1600934 C38.0289176,48.9336648 38.2919945,49.6988846 38.8097967,50.2897637 C39.3234231,50.8722912 40.0072143,51.1656429 40.6857857,51.1656429 L47.542489,51.1656429 C50.1116648,51.1656429 52.0899615,50.640533 53.457544,49.1518516 C54.7228187,47.7727857 55.5506758,45.7809176 55.5506758,43.4466319 C55.5506758,41.2167418 54.7604011,39.2948187 53.5880385,37.9251484 C52.2810055,36.4082802 49.9957857,35.7286648 47.542489,35.7286648 L47.542489,35.7286648 Z"/>
        <g transform="translate(137.802 .559)">
            <mask id="d" fill="white">
                <use xlink:href="#c"/>
            </mask>
            <path fill="#FEFEFE" d="M52.073467,17.5790714 L50.6620385,17.2230824 L40.3759396,14.6173681 C38.4070385,6.23544505 30.6619286,0.485335165 21.1055549,0.485335165 C12.0523681,0.485335165 5.74582967,6.15714835 4.46176374,15.357533 L1.1137967,17.4517088 L0.23582967,18.0018736 L0.23582967,23.1120385 L6.39203846,23.1120385 C4.96808242,25.0517088 3.79885165,27.2137418 2.86346703,29.7077527 L2.52209341,30.6212143 L3.07643407,31.4229725 C3.70176374,32.3343462 4.41791758,33.144456 5.20088462,33.8386868 C3.60885165,35.4881374 1.53868681,39.0574231 0.723357143,41.5754451 L0.251489011,43.0328077 L1.58462088,43.7813242 L27.4120934,58.2756099 L29.8017088,59.6181374 L30.176489,56.9028077 C30.9083022,51.6287418 28.8798956,47.0572582 27.4016538,43.7186868 C26.6416538,42.0013791 25.6926978,39.8644011 25.9985769,39.1012692 C25.9985769,39.1012692 26.0726978,39.0741264 26.2700055,39.0741264 C26.8859396,39.0741264 27.8870934,39.3257198 28.9456648,39.5908846 L29.7286319,39.7840165 C31.4699505,40.2089066 33.382478,40.6003901 35.5747857,40.6003901 C36.6229176,40.6003901 37.6616538,40.5064341 38.6669835,40.3206099 C41.6036319,39.7767088 48.0427527,35.6186319 48.0427527,26.8243462 L48.0427527,25.3711593 L46.6313242,25.0120385 L39.3403352,23.1788516 C39.3246758,23.1569286 39.3090165,23.1339615 39.2933571,23.1120385 L52.073467,23.1120385 L52.073467,17.5790714 Z" mask="url(#d)"/>
        </g>
        <path fill="#F68E1E" d="M149.175681,14.1464396 C149.656945,12.4625385 150.414857,11.0448462 151.434802,9.95808791 C153.126011,8.15204396 155.639857,7.19786813 158.699692,7.19786813 C159.17678,7.19786813 159.650736,7.22083516 160.122604,7.26676923 L160.128868,5.12352747 C159.653868,5.08281319 159.17678,5.06297802 158.699692,5.06297802 C155.033319,5.06297802 151.983923,6.25204396 149.87722,8.50072527 C148.682934,9.7753956 147.788264,11.3935275 147.208868,13.2903956 L149.175681,14.1464396 Z M188.007714,19.5938022 L188.007714,21.8028132 L139.904308,21.8028132 L139.904308,19.5938022 L144.013319,17.0256703 C144.916341,8.0727033 150.569363,2.91347253 158.90744,2.91347253 C167.142165,2.91347253 175.151396,7.94638462 176.576396,16.6947363 L176.57744,16.6947363 L188.007714,19.5938022 Z"/>
        <path fill="#004990" d="M175.986143,25.3751264 C175.566473,24.7310055 175.152022,24.1192473 174.650923,23.5273242 L170.600374,23.5273242 C170.976198,24.0889725 171.106692,24.8249615 170.821692,25.4179286 C170.336253,26.4222143 169.091857,26.6946868 168.188835,26.2572692 C167.284769,25.8219396 166.866143,24.6286978 167.30356,23.7256758 C167.336967,23.6546868 167.382901,23.5930934 167.424659,23.5273242 L146.664549,23.5273242 C144.897132,25.6068846 143.518066,27.9766648 142.416692,30.9206209 C143.435593,32.4030385 144.803176,33.6797967 146.40878,34.4544121 C150.327791,36.3418846 153.795813,34.7947418 155.637352,30.9780385 L156.750209,28.6677637 L158.660648,29.5864451 L157.496637,31.9990275 C154.68944,37.8253462 149.631473,38.518533 144.420044,35.620511 C142.991912,37.0465549 141.029275,40.4675989 140.301637,42.7100165 L166.130154,57.2032582 C167.294165,48.7868846 160.632681,42.3049615 162.092132,38.9747418 C163.552626,35.6466099 168.834,40.3966099 176.127077,39.0425989 C178.47389,38.6062253 183.976582,34.9586429 183.976582,27.3836978 L175.986143,25.3751264 Z"/>
    </g>
</svg>