<svg xmlns:inkscape="http://www.inkscape.org/namespaces/inkscape" xmlns:sodipodi="http://sodipodi.sourceforge.net/DTD/sodipodi-0.dtd" xmlns="http://www.w3.org/2000/svg" xmlns:svg="http://www.w3.org/2000/svg" version="1.1" width="188pt" height="255.57207pt" id="svg12" viewBox="0 0 188 255.57207" sodipodi:docname="fc-bacau-seeklogo.svg" inkscape:version="1.2.1 (9c6d41e410, 2022-07-14)">
  <defs id="defs12"/>
  <sodipodi:namedview id="namedview12" pagecolor="#ffffff" bordercolor="#000000" borderopacity="0.25" inkscape:showpageshadow="2" inkscape:pageopacity="0.0" inkscape:pagecheckerboard="0" inkscape:deskcolor="#d1d1d1" inkscape:document-units="pt" showgrid="false" inkscape:zoom="0.25" inkscape:cx="682" inkscape:cy="668" inkscape:window-width="1920" inkscape:window-height="1009" inkscape:window-x="-8" inkscape:window-y="-8" inkscape:window-maximized="1" inkscape:current-layer="svg12"/>
  <path style="fill:#ffffff;fill-opacity:1;stroke:none;stroke-width:0.268393;stroke-dasharray:none;stroke-opacity:1;paint-order:stroke fill markers" d="m 122.29202,95.342831 c -0.51964,0.489944 0.24832,1.684008 0.14427,2.325416 0.38616,2.980003 0.6809,6.003653 1.15378,8.954143 0.97369,0.032 1.88076,-0.78836 2.81035,-1.08306 1.40209,-0.7096 2.92715,-1.26781 4.24469,-2.0857 -2.11507,-2.37619 -4.52144,-4.599362 -6.79732,-6.867891 -0.44412,-0.324975 -0.9015,-1.272149 -1.48172,-1.334157 z" id="path15896" sodipodi:nodetypes="cccccccc"/>
  <path style="fill:#ffffff;fill-opacity:1;stroke:none;stroke-width:0.268393;stroke-dasharray:none;stroke-opacity:1;paint-order:stroke fill markers" d="m 33.044647,79.688318 c -1.846129,1.205885 -3.646407,2.552529 -5.3156,3.992136 0.498273,1.246146 1.575684,2.299629 2.480931,3.306255 1.028703,1.188329 2.66059,2.166727 4.247596,1.443669 1.699517,-0.567334 2.753855,-2.578862 1.910176,-4.244138 -0.800418,-1.6323 -1.816048,-3.252326 -3.169133,-4.473684 -0.04825,-0.02041 -0.10138,-0.03292 -0.15397,-0.02422 z" id="path15894"/>
  <path style="fill:#ffffff;fill-opacity:1;stroke:none;stroke-width:0.268393;stroke-dasharray:none;stroke-opacity:1;paint-order:stroke fill markers" d="m 42.190543,72.856782 c -1.795507,1.131074 -3.545836,2.434805 -5.168019,3.769002 0.413527,1.281921 1.621051,2.1971 2.490449,3.195486 1.11884,1.371974 3.306093,2.032485 4.73673,0.735339 1.578461,-1.052379 1.3285,-3.308786 0.313331,-4.663667 -0.715752,-1.026465 -1.277422,-2.290212 -2.288714,-3.042576 z" id="path15892"/>
  <path style="fill:#ffffff;fill-opacity:1;stroke:none;stroke-width:0.268393;stroke-dasharray:none;stroke-opacity:1;paint-order:stroke fill markers" d="m 65.025958,95.051615 c -2.659593,1.97778 -5.056962,4.86846 -7.502636,7.105595 -1.571506,0.90942 0.404117,1.37936 1.195021,1.82946 1.642101,0.69242 3.162043,1.85852 4.917088,2.20193 0.623912,-0.436 0.29697,-1.51064 0.547818,-2.1635 0.324652,-2.83284 0.773192,-5.670184 0.905407,-8.514745 -0.03631,-0.09924 0.03346,-0.484668 -0.0627,-0.45874 z" id="path15890" sodipodi:nodetypes="ccccccc"/>
  <path style="fill:#ffffff;fill-opacity:1;stroke:none;stroke-width:0.268393;stroke-dasharray:none;stroke-opacity:1;paint-order:stroke fill markers" d="m 49.360008,51.644293 c -3.666838,1.546366 -7.183723,3.473854 -10.806626,5.136319 -9.61352,4.685428 -19.349527,9.128081 -28.863421,14.013092 -0.5900831,0.207888 -1.0815899,0.707614 -0.654345,1.313301 5.115563,15.334476 14.810651,29.140845 27.513059,39.144835 16.834119,13.36747 38.525463,20.21979 59.95485,19.71009 17.234325,-0.49168 34.371105,-5.77553 48.625585,-15.53213 14.18,-9.5878 25.21602,-23.427263 32.30729,-38.941065 0.66863,-1.514027 1.50603,-3.045319 1.97573,-4.635194 -0.64181,-0.718796 -1.85096,-0.869118 -2.6765,-1.400296 -12.8863,-6.186074 -25.77815,-12.420844 -38.76644,-18.38524 -0.65418,0.357671 -0.43498,1.473094 -0.69168,2.091173 -2.16035,9.734469 -7.63774,18.711861 -15.39898,24.994479 -6.64445,5.491449 -14.98824,8.91013 -23.526152,9.769321 -5.249722,0.11869 -10.596265,0.362465 -15.680049,-1.185277 C 69.871293,84.505854 58.842931,75.215328 53.365758,63.200282 51.669477,59.665484 50.802911,55.65132 49.930038,51.855686 c -0.07504,-0.21283 -0.311229,-0.236364 -0.57003,-0.211393 z M 146.82259,63.70196 c 5.26002,3.690203 10.40626,7.599589 15.39216,11.668793 2.31403,2.109732 3.62156,5.250617 3.0766,8.358573 -0.6909,4.152285 -3.56543,7.72779 -6.96892,10.0858 -3.35122,2.249042 -7.98573,1.665556 -11.07879,-0.800949 -4.84299,-3.419314 -9.68145,-6.85838 -14.35716,-10.498571 1.27516,-1.840062 2.57536,-3.7375 3.98928,-5.436075 3.52913,2.107062 6.68988,4.791702 10.06517,7.13594 2.1256,1.382915 4.02874,3.190364 6.38241,4.182471 1.46247,0.589574 3.28836,0.457712 4.34396,-0.829791 1.71022,-1.495604 2.35209,-4.194598 0.98946,-6.128282 -1.52972,-2.301307 -4.12505,-3.563421 -6.19669,-5.304906 -3.15593,-2.364796 -6.46205,-4.638608 -9.51662,-7.072493 1.17623,-1.839671 2.46239,-3.672351 3.81962,-5.394725 z M 41.771384,64.358169 c 2.937641,3.802402 5.880561,7.625423 8.462252,11.679841 1.471153,2.579628 2.190649,6.272662 -0.05596,8.635485 -1.641723,1.916181 -4.46623,3.01611 -6.899989,1.941174 -0.885679,-0.181859 -1.554309,-1.01831 -2.427696,-1.106746 -0.333087,0.607983 0.403848,1.32238 0.397784,1.985374 0.828746,2.59216 -0.298048,5.566428 -2.67795,6.935976 -2.612662,1.853501 -6.406677,1.483387 -8.709621,-0.669399 -2.568402,-2.249448 -4.410353,-5.226389 -6.590946,-7.844538 -1.208874,-1.58208 -2.445404,-3.145162 -3.588992,-4.77559 6.734026,-5.529315 13.803297,-10.638434 20.74693,-15.899895 0.434602,-0.241068 0.929128,-0.852272 1.344188,-0.881682 z m 26.041881,25.286958 c 1.310092,0.679645 2.649971,1.313401 3.883427,2.119041 -0.886754,9.739512 -1.612102,19.513162 -2.762401,29.216002 -2.265905,-0.96064 -4.488226,-2.05445 -6.602346,-3.3149 0.169226,-2.02253 0.571295,-4.0562 0.585635,-6.08693 -3.137729,-1.70636 -6.43827,-3.17044 -9.641717,-4.77523 -1.484386,1.04298 -2.723451,2.57926 -4.130098,3.79134 -0.761572,1.1967 -1.956161,-0.27891 -2.944861,-0.48379 -1.289497,-0.59223 -2.578995,-1.18443 -3.868493,-1.77664 7.185879,-6.89304 14.409525,-13.749404 21.615973,-20.622581 1.288312,0.644564 2.576598,1.289127 3.864881,1.933688 z m 66.907815,8.399876 c 3.59885,3.349477 7.19771,6.698947 10.7966,10.048417 -2.26378,1.11992 -4.49241,2.33577 -6.82762,3.28246 -1.54051,-1.43198 -2.94066,-3.13908 -4.56621,-4.40421 -3.12635,1.60191 -6.41274,3.00171 -9.40664,4.86509 -0.67362,0.64564 0.008,1.73852 -0.11297,2.53714 0.10071,1.27878 0.31179,2.5852 0.27195,3.85597 -1.95395,1.07137 -3.91981,2.16919 -6.00959,2.9524 -1.01622,-9.81862 -1.95298,-19.67948 -2.79092,-29.504008 2.55061,-1.290382 5.16271,-2.522709 7.74475,-3.777912 3.63355,3.381551 7.2671,6.763106 10.90065,10.144653 z M 96.777285,95.413405 c 3.090532,0.07904 6.275595,0.364039 9.147325,1.58117 0.16219,1.18757 -0.23653,2.502902 -0.29945,3.733105 -0.17626,0.41053 0.0414,1.51845 -0.35177,1.55932 -3.5726,-1.81917 -8.172125,-2.727579 -11.777507,-0.49081 -2.949389,1.72797 -4.451433,5.23109 -4.250183,8.57203 -0.10251,4.40591 3.701128,8.33622 8.061962,8.57917 2.670026,0.30614 5.319268,-0.29773 7.788198,-1.28703 0.74171,0.0422 0.22053,1.9243 0.44914,2.71386 0,1.0169 0.15017,2.13045 -0.0299,3.09854 -3.48821,0.72936 -7.146879,0.89416 -10.716381,0.60986 -4.53648,-0.66001 -9.20245,-2.97974 -11.280263,-7.26746 -1.053691,-1.88568 -1.449801,-4.06101 -1.30877,-6.22131 -0.08389,-2.4638 -0.01696,-4.96819 1.084205,-7.21186 1.545115,-3.897552 5.232604,-6.648854 9.270672,-7.504501 1.38616,-0.352201 2.777227,-0.472096 4.212769,-0.464084 z" id="path15888" sodipodi:nodetypes="ccccccccccccccccccccccccccccccccccccccccccccccccccccccccccccccccccccccccccccccccccc"/>
  <path style="fill:#ffffff;fill-opacity:1;stroke:none;stroke-width:0.536785;stroke-dasharray:none;stroke-opacity:1;paint-order:stroke fill markers" d="m 177.3093,93.105808 c -2.12908,2.063732 -4.33941,6.618196 -6.36703,8.839872 -17.25362,21.71333 -44.51729,35.28392 -72.183133,36.42182 -1.691218,0.008 -0.559625,2.46434 -0.85918,3.50204 -0.365006,30.33629 -0.185238,60.67885 -0.110924,91.01718 0.181896,3.54714 -0.362444,7.39299 0.261469,10.86958 3.666408,-1.89001 7.173108,-4.92197 10.541358,-7.42557 25.26208,-20.13787 42.56504,-48.68177 53.37067,-78.80929 7.18753,-20.03958 12.01326,-40.91037 14.88055,-61.989697 0.003,-0.272168 0.87225,-2.46207 0.46622,-2.425935 z" id="path15886" sodipodi:nodetypes="cccccccscc"/>
  <g id="Layer1000" transform="matrix(0.35940681,0,0,0.35940681,-12.887346,-23.504415)">
    <path d="m 233.1397,229.0476 h 20.6969 V 197.318 h 29.9327 v -14.9049 h -29.9327 v -17.2763 h 31.2678 V 150.232 h -51.9647 z m 126.1845,-18.2925 c -5.6749,2.2583 -12.5739,4.0651 -19.3615,4.0651 -15.1333,0 -25.927,-9.3722 -25.927,-24.8417 0,-14.6792 9.5697,-25.5192 24.2577,-25.5192 7.1215,0 13.5754,1.8068 20.2519,5.533 l 1.669,-17.0504 c -7.4551,-2.2584 -15.1333,-4.0649 -23.0335,-4.0649 -25.5931,0 -44.5099,13.6627 -44.5099,41.1015 0,29.81 23.9242,40.4241 44.621,40.4241 10.5713,0 17.1363,-1.6937 23.0341,-3.1618 z" style="fill:#958a26;fill-rule:evenodd" id="path1"/>
    <path d="m 444.2357,241.3643 -11.9327,16.3631 35.8359,26.0881 c 8.3982,6.1136 14.3788,12.9013 8.3397,22.1115 -6.7221,10.2529 -14.8997,5.5184 -23.2675,-0.6368 l -36.4361,-26.8007 -12.3082,16.6996 39.1885,28.7155 c 17.3959,12.7465 33.2924,7.807 45.4084,-8.7901 12.1164,-16.597 10.2269,-32.4346 -6.6137,-45.0726 z" style="fill:#958a26;fill-rule:evenodd" id="path2"/>
    <path d="m 329.8561,391.529 c -5.7702,2.2279 -12.1806,4.6729 -19.0676,4.6367 -15.3556,-0.08 -26.2586,-9.5092 -26.178,-24.9782 0.077,-14.678 10.0319,-25.7664 24.936,-25.6888 7.2256,0.0379 13.4279,2.0285 20.1832,5.7898 l 1.8203,-16.4774 c -7.4162,-2.9164 -15.1578,-4.3249 -23.2385,-4.5999 -26.7822,-0.9111 -44.7112,13.8006 -44.855,41.2379 -0.1562,29.8081 23.9145,40.6233 44.5402,40.2843 10.7255,-0.1762 16.4222,-0.8525 22.4141,-2.2888 z" style="fill:#958a26;fill-rule:evenodd" id="path3"/>
    <path d="m 213.0658,360.9522 -18.3914,-9.1152 21.9044,-21.581 0.2048,0.0964 z m -60.4948,6.0328 18.4711,8.5144 12.8382,-12.3716 26.7869,13.0858 -2.1771,17.4573 20.0771,9.5386 7.5491,-83.186 -22.5275,-11.2207 z" style="fill:#958a26;fill-rule:evenodd" id="path4"/>
    <path d="m 153.4327,268.3667 3.6793,4.8622 c 4.2238,5.5817 7.0962,11.8438 1.3341,16.2038 -5.3117,4.0194 -10.8654,0.4076 -15.6363,-5.8978 l -3.5428,-4.6821 z m -25.2859,18.9204 3.8836,5.1323 c 4.3606,5.7621 8.6288,12.0636 1.7862,17.241 -6.3922,4.8371 -12.1308,-0.1238 -16.7638,-6.2471 l -3.7472,-4.9516 z m -38.7242,3.3455 20.0313,26.4717 c 8.5167,11.2544 20.8592,21.6556 35.8955,10.2781 7.6531,-5.7911 8.1721,-14.8704 4.2209,-23.6385 l 0.1803,-0.1359 c 7.6556,5.2512 15.1714,6.7892 23.0943,0.7938 10.8048,-8.1756 8.7887,-20.8418 0.1708,-32.7236 L 152.27,243.0757 Z" style="fill:#958a26;fill-rule:evenodd" id="path5"/>
    <path d="m 398.8077,353.0156 -18.6468,8.8908 -3.8158,-31.0229 0.2029,-0.1002 z m -32.7259,50.8386 18.1508,-9.1768 -1.7115,-17.8969 26.6759,-13.2248 12.6219,12.5565 19.9515,-9.7986 -61.3343,-57.0949 -22.492,10.935 z" style="fill:#958a26;fill-rule:evenodd" id="path6"/>
    <path d="m 296.8676,88.075 c -28.0811,0 -53.5033,11.3814 -71.9045,29.7825 -18.4011,18.4011 -29.7824,43.8233 -29.7824,71.9045 0,28.0811 11.3813,53.5033 29.7824,71.9044 18.4012,18.4011 43.8234,29.7825 71.9045,29.7825 28.0812,0 53.5034,-11.3814 71.9045,-29.7825 18.4011,-18.4011 29.7825,-43.8233 29.7825,-71.9044 0,-28.0812 -11.3814,-53.5034 -29.7825,-71.9045 C 350.371,99.4564 324.9488,88.075 296.8676,88.075 Z m -87.9378,13.7492 c 22.506,-22.506 53.5969,-36.4264 87.9378,-36.4264 34.3409,0 65.4319,13.9204 87.9378,36.4264 22.506,22.5059 36.4263,53.5969 36.4263,87.9378 0,34.3408 -13.9203,65.4318 -36.4263,87.9377 -22.5059,22.506 -53.5969,36.4264 -87.9378,36.4264 -34.3409,0 -65.4318,-13.9204 -87.9378,-36.4264 -22.5059,-22.5059 -36.4263,-53.5969 -36.4263,-87.9377 0,-34.3409 13.9204,-65.4319 36.4263,-87.9378 z" style="fill:#958a26;fill-rule:evenodd" id="path7"/>
    <path d="m 296.8676,88.075 c -28.0811,0 -53.5033,11.3814 -71.9045,29.7825 -18.4011,18.4011 -29.7824,43.8233 -29.7824,71.9045 0,28.0811 11.3813,53.5033 29.7824,71.9044 18.4012,18.4011 43.8234,29.7825 71.9045,29.7825 28.0812,0 53.5034,-11.3814 71.9045,-29.7825 18.4011,-18.4011 29.7825,-43.8233 29.7825,-71.9044 0,-28.0812 -11.3814,-53.5034 -29.7825,-71.9045 C 350.371,99.4564 324.9488,88.075 296.8676,88.075 Z m -63.7279,62.157 h 51.9647 v 14.9048 h -31.2678 v 17.2763 h 29.9327 v 14.9049 h -29.9327 v 31.7296 h -20.6969 z m 59.5312,39.7465 c 0,-27.4388 18.9168,-41.1015 44.5099,-41.1015 7.9002,0 15.5784,1.8065 23.0335,4.0649 l -1.669,17.0504 c -6.6765,-3.7262 -13.1304,-5.533 -20.2519,-5.533 -14.688,0 -24.2577,10.84 -24.2577,25.5192 0,15.4695 10.7937,24.8417 25.927,24.8417 6.7876,0 13.6866,-1.8068 19.3615,-4.0651 l 1.0018,16.4857 c -5.8978,1.4681 -12.4628,3.1618 -23.0341,3.1618 -20.6968,0 -44.621,-10.6141 -44.621,-40.4241 z" style="fill:#ff0000;fill-rule:evenodd" id="path8"/>
    <path d="m 186.7567,202.8226 c -20.276,10.0925 -43.8163,21.3432 -67.3586,32.5944 -19.5364,9.3368 -39.0739,18.6741 -60.899,29.4753 -1.216,90.5468 25.437,199.6523 72.0516,293.9297 41.6739,84.2857 99.1214,156.3514 166.5108,191.9172 68.9675,-41.6755 122.4904,-103.534 161.5476,-182.6204 41.0241,-83.0687 66.1269,-185.1627 76.4484,-302.8827 l -125.9416,-59.3238 9.6554,-20.4627 133.0684,62.6808 7.1017,3.3455 -0.635,7.7717 c -10.1148,123.7972 -36.1675,231.3159 -79.412,318.8809 -42.0143,85.074 -100.2195,151.2907 -175.756,195.3156 l -5.2296,3.0478 -5.4445,-2.6934 C 217.9491,736.9328 155.0772,659.4636 110.2654,568.8317 60.9301,469.0514 33.2569,352.8468 36.0502,257.4697 l 0.1998,-6.8232 6.0452,-3.0093 c 20.2762,-10.0928 43.8177,-21.344 67.3585,-32.5945 21.3387,-10.1982 42.6807,-20.3984 67.0043,-32.5054 z" style="fill:#958a26;fill-rule:evenodd" id="path9"/>
    <path d="m 58.4895,255.8356 c 15.6889,53.9033 47.3077,95.5369 86.938,124.4596 44.0637,32.1579 98.0345,48.6958 151.1056,49.0037 49.438,0.2868 102.3475,-14.1361 147.7951,-46.6617 39.0512,-27.9479 72.6366,-69.3955 93.8307,-126.5491 l 17.24117,14.11296 C 532.52597,331.88556 500.0204,370.5877 457.4384,401.0624 407.9353,436.4901 350.3004,452.2003 296.4447,451.8876 238.7894,451.5534 180.1074,433.5506 132.1398,398.5435 88.6533,366.8066 53.9717,321.1679 36.7869,262.1251 Z" style="fill:#958a26;fill-rule:evenodd" id="path10" sodipodi:nodetypes="ccssccscscc"/>
    <path d="m 308.6033,445.8076 0.2234,317.5492 H 286.238 l -0.2234,-317.5492 z" style="fill:#958a26;fill-rule:evenodd" id="path11"/>
    <path d="M 286.2249,744.6577 286.0186,451.635 C 231.7595,449.3231 177.2184,431.4421 132.1398,398.5435 103.8526,377.8994 79.2913,351.373 60.8477,319.1014 c 7.4562,77.8624 32.0768,163.622 69.703,239.7206 39.422,79.7313 92.9588,148.5273 155.6742,185.8357 z" style="fill:#ff0000;fill-rule:evenodd" id="path12"/>
  </g>
</svg>