<svg xmlns="http://www.w3.org/2000/svg" width="320" height="120" viewBox="0 0 170 50" fill="#F5F5F3" role="img" aria-label="Stockmeier logo">
  <g transform="translate(0 0)">
    <path d="M19.8 10c-.9-6.5-3.7-10-3.7-10s-1.7 3.4-2.8 7.6c-.5 2.1-.7 4.8-.7 7l8.1 7.9c0-2.8-.2-7.2-.9-12.5M23 27.5L9.2 14.1H1.1l6.1 10.5C2.7 26.8-.3 31.5-.2 36.8-.1 44.2 6 50.1 13.4 50c7.4-.1 13.3-6.2 13.2-13.6-.1-3.5-1.5-6.6-3.6-8.9"></path>
  </g>
  <g transform="translate(33 8) scale(1.1)">
    <path d="M10.6 9.6C10.6 7.3 9 6 7 5.7c-.9-.1-2-.2-2.9-.3-.8-.1-1.3-.6-1.3-1.5 0-.5.2-.8.4-1.1.5-.6 1.4-.7 2.2-.7.7 0 1.6.3 2 .7.3.3.6.8.6 1.3h2.5C10.4 3 9.9 2 9.1 1.3 8.2.4 6.8 0 5.4 0c-1.6 0-3 .5-3.9 1.4C.8 2.1.3 3 .3 4c0 2.2 1.5 3.4 3.4 3.7.9.1 2 .2 2.9.4.8.1 1.6.6 1.6 1.6 0 .6-.2 1-.5 1.3-.5.5-1.4.7-2.3.7-.8 0-1.7-.1-2.2-.7-.4-.4-.7-1-.7-1.6H0c0 1.3.6 2.4 1.4 3.1 1.1 1 2.6 1.4 4 1.4 1.6 0 3.2-.4 4.2-1.4.6-.8 1-1.7 1-2.9zm11-7.1V.2H11.3v2.2h3.9v11h2.4v-11h4zm11.7 4.4c0-2.2-.2-3.9-1.7-5.4-1-1-2.4-1.5-3.8-1.5S25 .5 24 1.5c-1.4 1.4-1.7 3.2-1.7 5.4s.2 3.9 1.7 5.4c1 1 2.4 1.5 3.8 1.5s2.8-.5 3.8-1.5c1.4-1.5 1.7-3.2 1.7-5.4m-2.5 0c0 1.2 0 2.8-1 3.8-.5.6-1.3.9-2.1.9s-1.6-.3-2.1-.9c-.9-1-1-2.6-1-3.8 0-1.2 0-2.9 1-3.8.5-.6 1.3-.9 2.1-.9s1.6.3 2.1.9c1 .9 1 2.6 1 3.8m14.8 2.4h-2.5c-.1.6-.3 1-.6 1.5-.4.5-1.2.8-2 .8s-1.5-.3-2-.9c-.9-1-.9-2.6-.9-3.8 0-1.2 0-2.9.9-3.8.5-.6 1.3-.9 2-.9.8 0 1.6.3 2 .8.3.4.5.8.6 1.4h2.5c-.1-1-.5-2.1-1.3-2.9-1-1-2.4-1.5-3.8-1.5s-2.7.5-3.8 1.5c-1.4 1.4-1.6 3.2-1.6 5.4s.2 3.9 1.6 5.4c1 1 2.3 1.5 3.8 1.5 1.4 0 2.8-.6 3.8-1.6.7-.8 1.1-1.9 1.3-2.9M59 13.5l-4.8-8.2 4.3-5h-2.9l-5.3 6.1V.2h-2.4v13.3h2.4V9.9l2.3-2.7 3.6 6.3H59zm15.2 0V.2h-3.1l-3.5 9.4L64.1.2h-3.3v13.3h2.3V3.9l3.4 9.4h1.8L71.9 4v9.5h2.3zm12.8 0v-2.2h-7V7.7h6.2V5.5H80V2.4h7V.2h-9.4v13.3H87zM92.1.2h-2.4v13.3h2.4V.2zm12.8 13.3v-2.2h-7V7.7h6.2V5.5h-6.2V2.4h7V.2h-9.4v13.3h9.4zm12.8 0l-2.4-5.4c1.5-.5 2.4-1.9 2.4-3.7 0-2.1-1.4-4.1-4.6-4.1h-5.6v13.3h2.4v-5h2.9l2.2 5h2.7zm-2.4-9.1c0 1.3-.8 2-2.2 2h-3.2v-4h3.2c1.3 0 2.2.9 2.2 2"></path>
    <path d="M9.7 33.2l-.3-1.6c-.7 1.1-2.1 1.9-3.7 1.9-1.3 0-2.6-.4-3.6-1.4C.7 30.8.4 28.9.4 26.5c0-2.1.3-4.1 1.7-5.5 1-.9 2.3-1.4 3.6-1.4 1.5 0 2.9.5 3.8 1.5.6.7 1.1 1.5 1.2 2.6H9c-.1-.6-.3-1.1-.6-1.5-.6-.7-1.5-1.1-2.6-1.1-.9 0-1.8.4-2.4 1-1.1 1.1-1.2 2.9-1.2 4.3 0 1.3.1 3.3 1.2 4.4.6.7 1.5 1 2.4 1 .9 0 1.8-.3 2.4-.9.9-.9 1.2-2.2 1.2-3.4H5.8V26h5.1v7.2H9.7zm14.2 0l-2.7-5.9c.6-.2 1.2-.5 1.6-.9.6-.7 1-1.5 1-2.6 0-1.2-.4-2-1.1-2.7-.7-.8-1.8-1.2-3.4-1.2H14v13.4h1.7v-5.6h3.7l2.5 5.6h2zm-4.5-11.8c1.6 0 2.7.7 2.7 2.4s-1.1 2.3-2.7 2.3h-3.6v-4.7h3.6M34.7 32c1.5-1.4 1.7-3.4 1.7-5.5s-.3-4.1-1.7-5.5c-1-.9-2.3-1.4-3.6-1.4-1.3 0-2.6.5-3.6 1.4-1.5 1.4-1.7 3.4-1.7 5.5s.3 4.1 1.7 5.5c1 .9 2.3 1.4 3.6 1.4 1.4.1 2.7-.4 3.6-1.4m-1.2-9.8c1.1 1.1 1.2 2.9 1.2 4.3s-.1 3.2-1.2 4.3c-.6.7-1.5 1-2.4 1-.9 0-1.8-.3-2.4-1-1.1-1.1-1.2-3-1.2-4.3 0-1.4.1-3.2 1.2-4.3.6-.7 1.5-1 2.4-1 .9 0 1.8.3 2.4 1m10.3 11.3c3 0 4.9-1.8 4.9-5.2v-8.5H47v8.5c0 2.1-.9 3.6-3.2 3.6-2.3 0-3.2-1.4-3.2-3.6v-8.5h-1.7v8.5c0 3.3 1.9 5.2 4.9 5.2m16.6-6.6c.7-.7 1.1-1.7 1.1-3 0-1.2-.4-2.1-1-2.8-.7-.8-1.8-1.2-3.4-1.2h-5v13.4h1.7V28h3.3c1.5 0 2.6-.4 3.3-1.1m-3.3-5.6c1.7 0 2.7.8 2.7 2.5 0 1.8-.9 2.6-2.7 2.6h-3.3v-5.1h3.3"></path>
  </g>
</svg>
